<?xml version="1.0" encoding="UTF-8"?>
<svg width="36px" height="36px" viewBox="0 0 36 36" version="1.1" xmlns="http://www.w3.org/2000/svg" xmlns:xlink="http://www.w3.org/1999/xlink">
    <!-- Generator: Sketch 52.6 (67491) - http://www.bohemiancoding.com/sketch -->
    <title>click-numbers</title>
    <desc>Created with Sketch.</desc>
    <defs>
        <path d="M18,0 L18,0 C27.9411255,-1.82615513e-15 36,8.0588745 36,18 L36,18 C36,27.9411255 27.9411255,36 18,36 L18,36 C8.0588745,36 1.21743675e-15,27.9411255 0,18 L0,18 C-1.21743675e-15,8.0588745 8.0588745,1.82615513e-15 18,0 Z" id="path-1"></path>
    </defs>
    <g id="Suits" stroke="none" stroke-width="1" fill="none" fill-rule="evenodd">
        <g id="Suits-/-How-it-Works" transform="translate(-554.000000, -1601.000000)">
            <g id="ENVISIONING-THE-FUTURE" transform="translate(115.000000, 1368.000000)">
                <g id="BTN-Copy-3" transform="translate(439.000000, 232.000000)">
                    <g id="click-numbers" transform="translate(0.000000, 1.000000)">
                        <mask id="mask-2" fill="white">
                            <use xlink:href="#path-1"></use>
                        </mask>
                        <use id="Rectangle-Copy" fill="#666666" fill-rule="nonzero" opacity="0.600000024" xlink:href="#path-1"></use>
                        <g id="flaticon1548248748-svg" mask="url(#mask-2)" fill="#FFFFFF">
                            <g transform="translate(7.000000, 7.000000)">
                                <path d="M25.7441145,21.9904848 L20.5700269,16.8162222 L24.2613266,14.6839596 C24.5497778,14.5172795 24.7176835,14.2006397 24.6936094,13.8684175 C24.6697104,13.5361077 24.4581212,13.2467811 24.1486599,13.1234343 L7.68794613,6.55734007 C7.36517845,6.42847811 6.99680135,6.5043771 6.75107071,6.7500202 C6.50534007,6.99583838 6.42944108,7.36421549 6.55821549,7.68689562 L13.1233468,24.1494478 C13.2467811,24.4588215 13.5361077,24.6704983 13.8684175,24.6944848 C14.2007273,24.7186465 14.517367,24.5506532 14.6839596,24.2621145 L16.8158721,20.5708148 L21.9897845,25.745165 C22.1527879,25.9083434 22.3740067,25.9999125 22.6045926,25.9999125 C22.8351785,25.9999125 23.0563098,25.9083434 23.2193131,25.745165 L25.7441145,23.220101 C26.0836902,22.8805253 26.0836902,22.3300606 25.7441145,21.9904848 Z M22.6045926,23.9009158 L17.2444781,18.5402761 C17.0802492,18.3760471 16.8586801,18.2855286 16.62967,18.2855286 C16.5920269,18.2855286 16.5540337,18.2879798 16.516303,18.2929697 C16.2481616,18.3281616 16.011798,18.4860875 15.8767205,18.7202626 L14.0747542,21.8404377 L8.9229899,8.9223771 L21.8397374,14.0748418 L18.7192997,15.8771582 C18.4852121,16.0122357 18.3272862,16.2485993 18.2920943,16.5167407 C18.2568148,16.7846195 18.3481212,17.0537239 18.5393131,17.2449158 L23.8996902,22.6055556 L22.6045926,23.9009158 Z" id="Shape" fill-rule="nonzero"></path>
                                <path d="M3.81779798,2.58704377 C3.47813468,2.24773064 2.92784512,2.24773064 2.58800673,2.58704377 C2.24843098,2.92670707 2.24843098,3.47717172 2.58800673,3.81683502 L4.51997306,5.74880135 C4.68971717,5.91845791 4.9123367,6.00346128 5.13486869,6.00346128 C5.35731313,6.00346128 5.57975758,5.91845791 5.74967677,5.74880135 C6.08916498,5.40922559 6.08916498,4.8586734 5.74967677,4.51909764 L3.81779798,2.58704377 Z" id="Path" fill-rule="evenodd"></path>
                                <path d="M4.47243771,8.59794613 C4.47243771,8.11777778 4.08305051,7.72856566 3.60288215,7.72856566 L0.870693603,7.72856566 C0.390612795,7.72856566 0.00113804714,8.11769024 0.00113804714,8.59794613 C0.00113804714,9.07802694 0.390525253,9.46741414 0.870693603,9.46741414 L3.60288215,9.46741414 C4.08305051,9.4673266 4.47243771,9.07802694 4.47243771,8.59794613 Z" id="Path" fill-rule="evenodd"></path>
                                <path d="M4.11999327,11.2815488 L2.18785185,13.2136902 C1.84818855,13.5530909 1.84818855,14.1036431 2.18785185,14.4432189 C2.35759596,14.612963 2.57995286,14.6978788 2.80265993,14.6978788 C3.02510438,14.6978788 3.24754882,14.612963 3.41729293,14.4432189 L5.34952189,12.511165 C5.68909764,12.1716768 5.68909764,11.621037 5.34952189,11.2815488 C5.01012121,10.9420606 4.45965657,10.9420606 4.11999327,11.2815488 Z" id="Path" fill-rule="evenodd"></path>
                                <path d="M8.59855892,4.47147475 C9.07863973,4.47147475 9.46802694,4.08208754 9.46802694,3.60191919 L9.46802694,0.869468013 C9.46802694,0.389387205 9.07872727,0 8.59855892,0 C8.11839057,0 7.72917845,0.389299663 7.72917845,0.869468013 L7.72917845,3.60200673 C7.72917845,4.08208754 8.11830303,4.47147475 8.59855892,4.47147475 Z" id="Path" fill-rule="evenodd"></path>
                                <path d="M11.8963569,5.60313131 C12.119064,5.60313131 12.3415084,5.51839057 12.5112525,5.34855892 L14.4431313,3.41659259 C14.7827946,3.07701684 14.7827946,2.52646465 14.4431313,2.18697643 C14.1036431,1.84740067 13.5529158,1.84740067 13.2136027,2.18697643 L11.2816364,4.11894276 C10.9420606,4.45843098 10.9420606,5.00907071 11.2816364,5.34855892 C11.4513805,5.51839057 11.6739125,5.60313131 11.8963569,5.60313131 Z" id="Path" fill-rule="evenodd"></path>
                            </g>
                        </g>
                    </g>
                </g>
            </g>
        </g>
    </g>
</svg>