<?xml version="1.0" encoding="UTF-8"?>
<svg width="285px" height="285px" viewBox="0 0 285 285" version="1.1" xmlns="http://www.w3.org/2000/svg" xmlns:xlink="http://www.w3.org/1999/xlink">
    <!-- Generator: Sketch 52.4 (67378) - http://www.bohemiancoding.com/sketch -->
    <title>Artboard</title>
    <desc>Created with Sketch.</desc>
    <g id="Artboard" stroke="none" stroke-width="1" fill="none" fill-rule="evenodd">
        <g id="Group" transform="translate(56.000000, 22.000000)" fill="#1922FB">
            <path d="M6.18395462,39 L0,32.4823633 C22.511461,11.535904 51.929266,0 82.8339893,0 C89.9374855,0 97.0590414,0.615546299 104,1.82875377 L102.430308,10.6356862 C96.0070618,9.51190431 89.4137532,8.94256124 82.8339893,8.94256124 C54.2348923,8.94256124 27.0128502,19.6184889 6.18395462,39 Z M170.80509,51 C168.365904,47.9906617 165.739677,45.0716939 163,42.322924 L169.572465,36 C172.531378,38.9686716 175.366108,42.1210965 178,45.3714228 L170.80509,51 Z M157.511955,217 L152,209.865538 C179.342828,188.444069 195.022874,156.175506 195.022874,121.333414 C195.022874,103.653206 191.054985,86.7399349 183.228428,71.0606919 L191.250985,67 C199.71043,83.9494335 204,102.230834 204,121.333414 C204,158.985595 187.055675,193.85481 157.511955,217 Z M50.6137024,238 C32.6835354,232.967256 15.8716647,223.557549 2,210.789629 L8.01963777,204 C20.859835,215.816273 36.4141838,224.522921 53,229.177447 L50.6137024,238 Z M82.8996265,242 C80.2617183,242 77.6050127,241.922363 75,241.771484 L75.5811544,233 C79.5552476,233.22998 83.6358597,233.273926 87.6256175,233.123047 L88,241.904785 C86.3082299,241.967773 84.6070611,242 82.8996265,242 Z" id="Fill-22"></path>
        </g>
    </g>
</svg>