<?xml version="1.0" encoding="utf-8"?>
<!-- Generator: Adobe Illustrator 23.0.1, SVG Export Plug-In . SVG Version: 6.00 Build 0)  -->
<svg version="1.1" id="Layer_1" xmlns="http://www.w3.org/2000/svg" xmlns:xlink="http://www.w3.org/1999/xlink" x="0px" y="0px"
	 viewBox="0 0 16 16" style="enable-background:new 0 0 16 16;" xml:space="preserve">
<style type="text/css">
	.st0{fill-rule:evenodd;clip-rule:evenodd;fill:#1C00FF;}
	.st1{fill-rule:evenodd;clip-rule:evenodd;fill:#13DD77;}
</style>
<title>LOGO</title>
<desc>Created with Sketch.</desc>
<path class="st0" d="M6.1,13.4c-0.8,0-1.4-0.6-1.4-1.4V0h1.3v12l0,0l0,0h4.6v1.3L6.1,13.4z"/>
<polygon class="st0" points="13.9,13.4 11.4,13.4 11.4,12.1 12.7,12.1 12.7,4.3 9.8,1.4 4.8,1.4 4.8,0 10.2,0 13.9,3.8 "/>
<polygon class="st1" points="11.4,16 10.1,16 10.1,5.7 8.4,4 6.1,4 6.1,2.7 8.9,2.7 11.4,5.1 "/>
<polygon class="st1" points="3.4,12 2.1,12 2.1,2.7 4.8,2.7 4.8,4 3.4,4 "/>
<path class="st1" d="M11.2,16H6.2c-1,0-2.1-0.4-2.8-1.1s-1.3-1.7-1.3-2.8V12h1.3c0,1.5,1.2,2.7,2.7,2.7h5.2V16z"/>
</svg>
