<?xml version="1.0" encoding="UTF-8"?>
<svg width="52px" height="60px" viewBox="0 0 52 60" version="1.1" xmlns="http://www.w3.org/2000/svg" xmlns:xlink="http://www.w3.org/1999/xlink">
    <!-- Generator: Sketch 52.5 (67469) - http://www.bohemiancoding.com/sketch -->
    <title>ICO</title>
    <desc>Created with Sketch.</desc>
    <defs>
        <polygon id="path-1" points="0 0 51.9301982 0 51.9301982 59.9999063 0 59.9999063"></polygon>
    </defs>
    <g id="Page-1" stroke="none" stroke-width="1" fill="none" fill-rule="evenodd">
        <g id="Home-3.1" transform="translate(-156.000000, -4098.000000)">
            <g id="SUITS_TILE-Copy-3" transform="translate(96.000000, 4044.000000)">
                <g id="LEFT" transform="translate(60.000000, 54.000000)">
                    <g id="ICO">
                        <path d="M25.9650288,19.05525 C19.9241279,19.05525 15.0269928,23.9553281 15.0269928,30.0000938 C15.0269928,36.044625 19.9241279,40.9447031 25.9650288,40.9447031 C32.006164,40.9447031 36.9032991,36.044625 36.9032991,29.9998594 C36.9032991,23.9553281 32.006164,19.05525 25.9650288,19.05525 M25.9652631,22.80525 L25.9650288,22.80525 C29.9299117,22.80525 33.1555514,26.0328281 33.1555514,29.9998594 C33.1555514,33.9673594 29.9299117,37.1947031 25.9652631,37.1947031 C22.0001459,37.1947031 18.7747405,33.967125 18.7747405,30.0000938 C18.7747405,26.0328281 22.0001459,22.80525 25.9652631,22.80525" id="Fill-1" fill="#1c00ff"></path>
                        <g id="Group-5">
                            <mask id="mask-2" fill="white">
                                <use xlink:href="#path-1"></use>
                            </mask>
                            <g id="Clip-4"></g>
                            <path d="M25.9650288,-9.375e-05 L-7.02702703e-05,14.9999062 L-7.02702703e-05,44.9999062 L25.9650288,59.9999062 L51.9303622,44.9999062 L51.9303622,14.9999062 L25.9650288,-9.375e-05 Z M25.9650288,4.33021875 L48.1826144,17.1650625 L48.1826144,42.8349844 L25.9650288,55.6698281 L3.74767748,42.8349844 L3.74767748,17.1650625 L25.9650288,4.33021875 Z" id="Fill-3" fill="#00EB94" mask="url(#mask-2)"></path>
                        </g>
                    </g>
                </g>
            </g>
        </g>
    </g>
</svg>