<?xml version="1.0" encoding="utf-8"?>
<!-- Generator: Adobe Illustrator 23.0.1, SVG Export Plug-In . SVG Version: 6.00 Build 0)  -->
<svg version="1.1" id="Layer_1" xmlns="http://www.w3.org/2000/svg" xmlns:xlink="http://www.w3.org/1999/xlink" x="0px" y="0px"
	 viewBox="0 0 50 50" style="enable-background:new 0 0 50 50;" xml:space="preserve">
<style type="text/css">
	.st0{fill:#FFFFFF;}
</style>
<path class="st0" d="M27.3,13c-0.4,0.4-0.4,1,0,1.4c0.4,0.4,1,0.4,1.4,0c0.4-0.4,0.4-1,0-1.4C28.3,12.6,27.7,12.6,27.3,13z"/>
<path class="st0" d="M26,15.8c-0.4-0.4-1-0.3-1.4,0.1c-1.1,1.3-3.1,3.6-4.2,5.4c-0.3,0.5-0.2,1.1,0.3,1.4c0.5,0.3,1.1,0.2,1.4-0.3
	c1.1-1.7,3.2-4.2,4.1-5.2C26.4,16.8,26.4,16.2,26,15.8z"/>
<path class="st0" d="M32.8,10.2c-1.9,1.9-1.9,5,0,6.9c1.9,1.9,5,1.9,6.9,0c1.9-1.9,1.9-5,0-6.9C37.8,8.3,34.8,8.3,32.8,10.2z
	 M38.4,15.8C38.4,15.8,38.4,15.8,38.4,15.8c-1.1,1.1-3,1.1-4.1,0c-1.1-1.1-1.1-3,0-4.1c1.1-1.1,3-1.1,4.1,0
	C39.5,12.8,39.5,14.6,38.4,15.8z"/>
<path class="st0" d="M1.7,49.7l6.1-6.1c0.4-0.4,0.4-1,0-1.4c-0.4-0.4-1-0.4-1.4,0l-6.1,6.1c-0.4,0.4-0.4,1,0,1.4
	C0.7,50.1,1.3,50.1,1.7,49.7z"/>
<path class="st0" d="M11.4,49.7l6.1-6.1c0.4-0.4,0.4-1,0-1.4c-0.4-0.4-1-0.4-1.4,0l-6.1,6.1c-0.4,0.4-0.4,1,0,1.4
	C10.4,50.1,11.1,50.1,11.4,49.7z"/>
<path class="st0" d="M0.3,39.9c0.4,0.4,1,0.4,1.4,0l6.1-6.1c0.4-0.4,0.4-1,0-1.4c-0.4-0.4-1-0.4-1.4,0l-6.1,6.1
	C-0.1,38.9-0.1,39.6,0.3,39.9z"/>
<path class="st0" d="M50,1c0-0.3-0.1-0.5-0.3-0.7S49.2,0,49,0c-5,0.3-16.8,2.7-24.4,10.3c-1.6,1.6-3.2,3.4-4.6,5.2
	c-6.1-1.2-12.3,0.7-16.7,5.1C2,21.7,1,23.1,0.1,24.7c-0.5,0.9,0.5,1.8,1.3,1.3c3.9-2.2,8.5-2.6,12.8-1.4c-0.4,0.9-0.7,1.7-0.9,2.4
	c-0.3,0.9-0.1,1.8,0.5,2.5c-0.3,0.2-0.5,0.5-0.8,0.7c-2.5,2.5-3,8.6-3,8.9c0,0.6,0.4,1.1,1,1.1c0,0,0.1,0,0.1,0c0.3,0,6.4-0.5,8.9-3
	c0.3-0.3,0.5-0.5,0.7-0.8c0.7,0.4,1.6,0.6,2.3,0.3c0.8-0.2,1.6-0.5,2.4-0.9c1.3,4.3,0.8,8.8-1.4,12.8c-0.5,0.9,0.5,1.8,1.3,1.3
	c1.5-0.8,2.9-1.9,4.2-3.1c4.4-4.4,6.3-10.6,5.1-16.7c1.8-1.4,3.5-3,5.2-4.6c3.7-3.7,6.6-8.8,8.4-14.9C49.1,7.5,49.9,3.3,50,1z
	 M3.7,22.9c0.3-0.3,0.6-0.7,0.9-1c3.7-3.7,8.8-5.4,14-4.7c-1.4,1.9-2.6,3.9-3.6,5.7C11.3,21.7,7.4,21.7,3.7,22.9z M18.5,35.8
	c-1.3,1.3-4.5,2.1-6.5,2.3c0.3-2,1-5.1,2.3-6.5c0.2-0.2,0.5-0.5,0.8-0.7l4,4C19,35.3,18.7,35.6,18.5,35.8z M22.4,34.8
	c-0.3,0.1-0.7,0-0.9-0.3c-1.4-1.4-5.4-5.4-6-6c-0.3-0.3-0.4-0.6-0.3-0.9c0.2-0.7,0.5-1.5,0.9-2.3c1.9,0.8,3.7,2,5.2,3.5
	c1.5,1.5,2.7,3.2,3.5,5.2C23.9,34.3,23.1,34.6,22.4,34.8z M28.1,45.4c-0.3,0.3-0.7,0.6-1,0.9c1.2-3.7,1.2-7.6,0-11.3
	c1.8-0.9,3.7-2.2,5.7-3.6C33.5,36.5,31.8,41.6,28.1,45.4z M38.4,24.1c-3.4,3.4-7.7,6.8-11.9,9c-0.9-2.1-2.2-4-3.9-5.7
	c-1.7-1.7-3.6-3-5.7-3.9c2.2-4.2,5.7-8.5,9-11.9c3.4-3.4,8-6,13.5-7.8l6.6,6.6C44.4,16.1,41.8,20.7,38.4,24.1z M46.7,8.4l-5.1-5.1
	c2.7-0.7,5-1,6.3-1.2C47.8,3.3,47.5,5.6,46.7,8.4z"/>
</svg>
